<?xml version="1.0" standalone="no"?> <!DOCTYPE svg PUBLIC "-//W3C//DTD SVG 20010904//EN" "http://www.w3.org/TR/2001/REC-SVG-20010904/DTD/svg10.dtd"> <svg version="1.0" xmlns="http://www.w3.org/2000/svg" width="251.000000pt" height="245.000000pt" viewBox="0 0 251.000000 245.000000" preserveAspectRatio="xMidYMid meet"> <g transform="translate(0.000000,245.000000) scale(0.100000,-0.100000)" fill="#6B079B" stroke="none"> <path d="M0 1225 l0 -1225 1255 0 1255 0 0 1225 0 1225 -1255 0 -1255 0 0 -1225z m667 962 c34 -23 57 -59 134 -200 51 -95 116 -215 144 -267 29 -52 74 -135 100 -185 27 -49 105 -196 175 -325 70 -129 144 -266 164 -305 164 -306 158 -297 185 -290 85 21 187 115 244 222 57 108 80 216 80 363 0 191 -49 347 -151 477 -40 50 -158 137 -174 127 -4 -3 -8 -33 -8 -66 0 -126 -70 -203 -186 -203 -77 0 -131 33 -163 97 -19 41 -21 61 -21 244 0 172 3 205 19 240 37 82 101 110 235 101 200 -13 366 -84 512 -221 157 -145 261 -351 300 -591 76 -475 -113 -927 -462 -1103 -107 -54 -197 -76 -315 -76 -97 -1 -108 1 -145 25 -43 29 -45 33 -459 804 -65 121 -147 272 -182 335 l-63 115 0 -452 0 -453 73 0 c130 0 220 -65 234 -169 11 -83 -62 -192 -139 -206 -18 -3 -121 -5 -229 -3 -193 3 -196 3 -236 30 -25 16 -49 44 -62 71 l-21 44 2 865 3 864 27 41 c15 23 45 49 70 62 38 19 56 22 159 19 108 -3 118 -5 156 -31z"/> </g> </svg>