<svg xmlns="http://www.w3.org/2000/svg" version="1.1" xmlns:xlink="http://www.w3.org/1999/xlink" width="200" height="200"><svg xmlns="http://www.w3.org/2000/svg" version="1.1" xmlns:xlink="http://www.w3.org/1999/xlink" width="200" height="200"><svg xmlns="http://www.w3.org/2000/svg" version="1.1" xmlns:xlink="http://www.w3.org/1999/xlink" viewBox="0 0 200 200"><rect width="200" height="200" fill="url('#gradient')"></rect><defs><linearGradient id="gradient" gradientTransform="rotate(94 0.5 0.5)"><stop offset="0%" stop-color="#0ce8e3"></stop><stop offset="100%" stop-color="#ae3ec6"></stop></linearGradient></defs><g><g fill="#08090a" transform="matrix(5.802666666666667,0,0,5.802666666666667,25.78092304897308,152.63245082600912)" stroke="#0e5278" stroke-width="0.2"><path d="M8.94 0L5.91-5.29L4.50-3.75L4.50 0L1.07 0L1.07-14.22L4.50-14.22L4.50-7.95L5.69-9.76L8.76-14.22L13.00-14.22L8.19-7.93L13.00 0L8.94 0ZM24.44-12.46L17.71-2.64L24.51-2.64L24.51 0L13.44 0L13.44-1.81L20.21-11.57L13.40-11.57L13.40-14.22L24.44-14.22L24.44-12.46ZM17.37-16.71L17.37-16.71Q17.37-17.34 17.83-17.74Q18.29-18.14 18.99-18.14L18.99-18.14Q19.69-18.14 20.15-17.74Q20.61-17.34 20.61-16.71L20.61-16.71Q20.61-16.08 20.15-15.68Q19.69-15.28 18.99-15.28L18.99-15.28Q18.29-15.28 17.83-15.68Q17.37-16.08 17.37-16.71Z"></path></g></g></svg></svg><style>@media (prefers-color-scheme: light) { :root { filter: none; } }
@media (prefers-color-scheme: dark) { :root { filter: none; } }
</style></svg>